<svg id="Ebene_1" data-name="Ebene 1" xmlns="http://www.w3.org/2000/svg" viewBox="0 0 132.38 163.98"><defs><style>.cls-1{fill:#1d1d1b;}</style></defs><title>Logo DD-new</title><path class="cls-1" d="M260.13,129.57C246,116.4,224.7,109.46,194.78,109.46a299.07,299.07,0,0,0-44.29,3.35V271.53a337.87,337.87,0,0,0,37.82,1.91c31.36,0,56.26-8.14,71.34-23.22,15.08-14.84,23.22-36.39,23.22-62.72C282.87,161.41,274.49,142.74,260.13,129.57ZM171.9,147.33l65.95-1a5.5,5.5,0,1,1,.17,11l-55.12.83v8.34a5.5,5.5,0,0,1-11,0Zm71.45,41.94a5.5,5.5,0,0,1-5.5,5.5H178.69a5.5,5.5,0,0,1,0-11h59.16A5.5,5.5,0,0,1,243.35,189.27Zm.46,43.06H176.86a5.5,5.5,0,0,1,0-11h55.95V209.87a5.5,5.5,0,0,1,11,0Z" transform="translate(-150.49 -109.46)"/></svg>