<?xml version="1.0" standalone="no"?>
<!DOCTYPE svg PUBLIC "-//W3C//DTD SVG 20010904//EN"
 "http://www.w3.org/TR/2001/REC-SVG-20010904/DTD/svg10.dtd">
<svg version="1.0" xmlns="http://www.w3.org/2000/svg"
 width="656.000000pt" height="656.000000pt" viewBox="0 0 656.000000 656.000000"
 preserveAspectRatio="xMidYMid meet">
<metadata>
Created by potrace 1.11, written by Peter Selinger 2001-2013
</metadata>
<g transform="translate(0.000000,656.000000) scale(0.100000,-0.100000)"
fill="#000000" stroke="none">
<path d="M1988 6555 c-2 -2 -68 -6 -148 -10 -153 -7 -227 -11 -325 -19 -33 -3
-91 -8 -129 -11 -38 -3 -90 -7 -115 -10 -108 -11 -178 -18 -206 -21 -16 -1
-30 -3 -30 -4 0 -1 -16 -3 -35 -5 -70 -6 -205 -23 -250 -31 -14 -3 -46 -7 -73
-11 l-47 -6 2 -3175 c3 -2813 5 -3175 18 -3177 13 -2 100 -11 210 -21 19 -2
67 -5 105 -8 39 -3 97 -8 130 -11 395 -36 1311 -42 1630 -10 22 2 68 6 102 9
35 3 77 8 95 11 18 3 49 7 68 9 19 3 64 9 100 15 58 9 92 15 205 36 17 3 71
14 120 25 126 28 125 28 170 40 22 6 47 13 55 15 8 2 16 4 18 5 1 2 5 3 10 4
65 17 247 75 292 93 8 4 17 7 20 8 3 1 19 7 35 14 17 7 35 14 40 15 6 2 33 13
60 26 28 13 53 24 56 24 10 1 153 70 159 77 3 3 25 15 50 27 25 12 68 35 95
52 28 16 57 33 65 37 8 3 17 9 20 12 3 3 38 29 79 56 41 28 83 57 95 65 88 61
315 271 410 380 193 221 384 532 500 812 82 197 165 466 191 617 3 19 7 37 9
40 2 3 7 29 10 56 4 28 11 66 16 85 5 19 12 60 15 90 4 30 8 66 10 80 6 49 15
136 22 210 8 94 8 631 0 725 -4 39 -9 95 -12 125 -3 30 -7 65 -9 76 -2 12 -7
39 -10 60 -17 114 -23 148 -30 172 -3 9 -7 33 -10 52 -3 19 -13 60 -21 90 -9
30 -18 66 -21 80 -7 36 -58 194 -87 270 -14 36 -31 81 -39 100 -32 85 -188
380 -200 380 -4 0 -8 6 -8 13 0 11 -21 43 -117 177 -65 90 -231 271 -344 376
-107 98 -386 304 -414 304 -5 0 -16 6 -24 14 -51 44 -393 198 -546 246 -38 12
-79 25 -90 30 -11 5 -31 11 -45 14 -14 4 -77 20 -140 36 -106 27 -247 58 -295
65 -28 4 -95 15 -125 20 -14 2 -43 7 -65 9 -22 3 -76 10 -120 16 -44 5 -114
13 -155 16 -41 3 -93 8 -115 10 -43 6 -882 14 -887 9z m1829 -1475 c21 0 103
1 183 3 205 5 259 -12 316 -102 50 -79 39 -196 -24 -264 -56 -59 -92 -70 -257
-73 -82 -1 -200 -4 -260 -5 -61 -2 -116 1 -123 5 -7 4 -12 4 -12 -1 0 -4 -89
-9 -198 -9 -108 -1 -386 -5 -617 -8 -231 -4 -525 -8 -653 -10 -128 -2 -236 -6
-239 -9 -3 -4 -5 -84 -6 -179 0 -94 -4 -188 -9 -207 -16 -59 -56 -108 -111
-136 -116 -58 -242 -14 -298 104 -21 45 -22 56 -22 451 l0 405 89 1 c114 2
869 13 1259 19 165 3 439 7 608 9 170 3 311 7 314 10 3 3 9 3 13 1 5 -3 25 -5
47 -5z m373 -1501 c34 -9 89 -48 112 -80 54 -72 59 -165 13 -244 -27 -45 -89
-93 -134 -102 -14 -3 -575 -5 -1246 -5 -890 0 -1228 3 -1249 11 -173 69 -196
294 -41 395 17 11 46 23 65 26 38 7 2455 5 2480 -1z m55 -842 c50 -26 89 -70
106 -117 13 -39 15 -111 15 -510 l-1 -465 -1354 0 c-1487 0 -1409 -3 -1475 61
-48 47 -67 90 -67 156 -1 68 22 121 69 163 70 63 7 60 1250 60 623 0 1133 2
1133 5 1 3 3 116 3 251 2 245 2 246 29 300 53 109 186 153 292 96z"/>
</g>
</svg>
